<svg width="163" height="40" viewBox="0 0 163 40" fill="none" xmlns="http://www.w3.org/2000/svg">
<path d="M4.27198 0.70406L4.55998 17.2161C5.39198 16.4481 6.19198 15.6801 6.95998 14.9121C7.72798 14.1121 8.51198 13.3281 9.31198 12.5601C11.232 10.6721 13.12 8.80006 14.976 6.94406C16.864 5.05606 18.752 3.16806 20.64 1.28006L21.408 0.560059L22.224 1.18406C22.288 1.24806 22.384 1.34406 22.512 1.47206C22.64 1.56806 22.784 1.68006 22.944 1.80806C23.008 1.87206 23.072 1.95206 23.136 2.04806C23.232 2.11206 23.312 2.17606 23.376 2.24006C23.6 2.56006 23.712 2.81606 23.712 3.00806C23.712 3.04006 23.696 3.13606 23.664 3.29606C23.632 3.42406 23.536 3.58406 23.376 3.77606C23.248 3.87206 23.088 4.03206 22.896 4.25606C22.704 4.44806 22.464 4.67206 22.176 4.92806C21.92 5.18406 21.632 5.47206 21.312 5.79206C19.264 7.84006 17.216 9.88806 15.168 11.9361C13.152 13.9521 11.088 15.9681 8.97598 17.9841C9.23198 18.2081 9.50398 18.4481 9.79198 18.7041C10.112 18.9281 10.416 19.1681 10.704 19.4241C13.648 21.8881 16.544 24.3521 19.392 26.8161C22.272 29.2481 25.168 31.7121 28.08 34.2081C28.176 34.2721 28.304 34.3841 28.464 34.5441C28.656 34.7041 28.848 34.8641 29.04 35.0241C29.136 35.0881 29.216 35.1521 29.28 35.2161C29.376 35.3121 29.472 35.3921 29.568 35.4561C29.632 35.4881 29.696 35.5361 29.76 35.6001L30.288 35.8401V36.8001L27.696 39.1521L26.928 38.1921L26.784 38.0481L26.496 37.7601C26.368 37.6641 26.24 37.5681 26.112 37.4721C26.016 37.4081 25.936 37.3441 25.872 37.2801L17.04 29.5521C15.92 28.6241 14.8 27.6961 13.68 26.7681C12.592 25.8081 11.504 24.8481 10.416 23.8881C9.74398 23.3121 9.07198 22.7361 8.39998 22.1601C7.75998 21.5841 7.10398 21.0081 6.43198 20.4321L4.65598 22.1601L4.79998 32.1441L3.59998 32.0001C3.40798 31.9681 3.21598 31.9521 3.02398 31.9521C2.83198 31.9521 2.65598 31.9521 2.49598 31.9521L2.44798 31.9041H2.35198C2.15998 32.0001 1.99998 32.0481 1.87198 32.0481C1.55198 32.0481 1.27998 31.9521 1.05598 31.7601C0.86398 31.5681 0.76798 31.3441 0.76798 31.0881V29.9361L0.67198 24.8001C0.60798 21.5361 0.55998 18.3041 0.52798 15.1041C0.49598 11.9041 0.47998 8.67206 0.47998 5.40806C0.47998 4.80006 0.47998 4.19206 0.47998 3.58406C0.51198 2.97606 0.54398 2.36806 0.57598 1.76006L0.62398 0.944059L4.27198 0.70406ZM32.9205 28.1601C34.1365 28.1601 35.2085 27.9361 36.1365 27.4881C37.0645 27.0081 37.8485 26.3841 38.4885 25.6161C39.1285 24.8481 39.6245 23.9521 39.9765 22.9281C40.3285 21.9041 40.5205 20.8481 40.5525 19.7601V19.4241C40.5525 18.3681 40.4085 17.2801 40.1205 16.1601C39.8325 15.0401 39.4005 14.0321 38.8245 13.1361C38.2485 12.2081 37.5125 11.4561 36.6165 10.8801C35.7205 10.3041 34.6645 10.0161 33.4485 10.0161C32.6485 10.0161 31.8965 10.1601 31.1925 10.4481C30.5205 10.7361 29.8965 11.1361 29.3205 11.6481C28.7765 12.1281 28.2965 12.7041 27.8805 13.3761C27.4645 14.0161 27.1285 14.6881 26.8725 15.3921C26.6165 16.1601 26.4245 16.9601 26.2965 17.7921C26.1685 18.5921 26.1045 19.4081 26.1045 20.2401C26.1045 21.2321 26.2325 22.2081 26.4885 23.1681C26.7765 24.1281 27.2085 24.9761 27.7845 25.7121C28.3605 26.4481 29.0645 27.0401 29.8965 27.4881C30.7605 27.9361 31.7685 28.1601 32.9205 28.1601ZM38.0565 7.85606C39.2405 8.46406 40.2325 9.21606 41.0325 10.1121C41.8325 10.9761 42.4725 11.9201 42.9525 12.9441C43.4645 13.9361 43.8325 14.9761 44.0565 16.0641C44.2805 17.1521 44.3925 18.2241 44.3925 19.2801C44.3925 20.9441 44.1045 22.5441 43.5285 24.0801C42.9525 25.5841 42.1525 26.9121 41.1285 28.0641C40.1045 29.2161 38.8725 30.1281 37.4325 30.8001C36.0245 31.4721 34.4565 31.8081 32.7285 31.8081C31.0325 31.8081 29.5285 31.4881 28.2165 30.8481C26.9365 30.2081 25.8645 29.3441 25.0005 28.2561C24.1365 27.1681 23.4805 25.9041 23.0325 24.4641C22.5845 23.0241 22.3605 21.5041 22.3605 19.9041V19.0401C22.4245 18.2401 22.5045 17.4721 22.6005 16.7361C22.6965 15.9681 22.8725 15.1841 23.1285 14.3841C23.4165 13.4241 23.8325 12.4801 24.3765 11.5521C24.9525 10.6241 25.6405 9.79206 26.4405 9.05606C27.2725 8.32006 28.2325 7.72806 29.3205 7.28006C30.4405 6.80006 31.6885 6.56006 33.0645 6.56006C33.9605 6.56006 34.8245 6.67206 35.6565 6.89606C36.5205 7.12006 37.3205 7.44006 38.0565 7.85606ZM62.0164 19.1841L57.0724 19.3281C57.1684 21.2801 57.2644 23.2161 57.3604 25.1361C57.4884 27.0561 57.6004 28.9761 57.6964 30.8961L57.7444 32.0001L56.4964 31.8561C56.2404 31.8241 56.0004 31.8081 55.7764 31.8081C55.5844 31.7761 55.3604 31.7601 55.1044 31.7601C55.1684 31.7281 55.2324 31.6961 55.2964 31.6641C55.3604 31.6001 55.4244 31.5681 55.4884 31.5681L53.6164 30.9441C53.5844 29.0241 53.5364 27.1201 53.4724 25.2321C53.4404 23.3121 53.3924 21.3921 53.3284 19.4721C52.3044 19.5041 51.2804 19.5361 50.2564 19.5681C49.2324 19.5681 48.2084 19.5841 47.1844 19.6161H46.1764L45.9844 16.1121H53.3284C53.3284 15.9521 53.3284 15.7761 53.3284 15.5841C53.3284 15.3921 53.3124 15.2001 53.2804 15.0081C53.2164 14.6561 53.1844 14.2881 53.1844 13.9041C53.1844 13.5201 53.1844 13.1361 53.1844 12.7521C53.1844 11.5361 53.2804 10.2561 53.4724 8.91206C53.6644 7.53606 54.0324 6.27206 54.5764 5.12006C55.1204 3.96806 55.8564 3.00806 56.7844 2.24006C57.7444 1.47206 58.9924 1.05606 60.5284 0.99206L61.4404 0.944059L62.4004 4.30406L61.1524 4.40006C60.2884 4.49606 59.5844 4.78406 59.0404 5.26406C58.5284 5.74406 58.1124 6.32006 57.7924 6.99206C57.5044 7.66406 57.2964 8.40006 57.1684 9.20006C57.0404 9.96806 56.9444 10.7041 56.8804 11.4081C56.8484 11.9841 56.8324 12.5281 56.8324 13.0401C56.8324 13.5521 56.8324 14.0161 56.8324 14.4321C56.8324 14.7201 56.8324 15.0081 56.8324 15.2961C56.8644 15.5841 56.8804 15.8561 56.8804 16.1121C57.5524 16.1121 58.2244 16.1121 58.8964 16.1121C59.5684 16.1121 60.2404 16.0961 60.9124 16.0641L62.0164 16.0161V19.1841ZM69.0289 6.46406L69.4129 32.1441L66.9649 31.9041C66.8369 32.0001 66.6769 32.0481 66.4849 32.0481C66.1649 32.0481 65.9249 31.9841 65.7649 31.8561C65.6369 31.7281 65.5409 31.5681 65.4769 31.3761C65.4449 31.1841 65.4289 30.9761 65.4289 30.7521C65.4289 30.4961 65.4289 30.2721 65.4289 30.0801L65.3329 25.6161C65.2689 22.3841 65.2209 19.1681 65.1889 15.9681C65.1569 12.7361 65.1409 9.50406 65.1409 6.27206H65.2369C65.2369 5.88806 65.2209 5.47206 65.1889 5.02406C65.1569 4.57606 65.1729 4.17606 65.2369 3.82406C65.3329 3.44006 65.4929 3.12006 65.7169 2.86406C65.9729 2.60806 66.3889 2.48006 66.9649 2.48006H68.2129C68.4369 2.73606 68.6609 2.99206 68.8849 3.24806C69.1089 3.50406 69.2209 3.80806 69.2209 4.16006C69.2209 4.54406 69.1889 4.92806 69.1249 5.31206C69.0929 5.69606 69.0769 6.08006 69.0769 6.46406H69.0289ZM96.8696 24.4161L96.5336 25.0401C96.0536 26.0321 95.4136 26.9601 94.6136 27.8241C93.8456 28.6561 92.9496 29.3921 91.9256 30.0321C90.9336 30.6401 89.8456 31.1201 88.6616 31.4721C87.4776 31.7921 86.2296 31.9521 84.9176 31.9521C82.8056 31.9521 80.9496 31.5521 79.3496 30.7521C77.7496 29.9521 76.4056 28.8801 75.3176 27.5361C74.2616 26.1921 73.4616 24.6241 72.9176 22.8321C72.3736 21.0081 72.1016 19.0881 72.1016 17.0721C72.1016 15.8241 72.1976 14.5121 72.3896 13.1361C72.5816 11.7601 72.9336 10.4161 73.4456 9.10406C73.9896 7.79206 74.7256 6.56006 75.6536 5.40806C76.5816 4.25606 77.7816 3.28006 79.2536 2.48006C81.1096 1.45606 83.1576 0.944059 85.3976 0.944059C87.4456 0.944059 89.3656 1.37606 91.1576 2.24006C92.9496 3.07206 94.3896 4.25606 95.4776 5.79206L95.8136 6.22406L93.3176 9.44006L92.5016 7.90406C91.9576 6.84806 91.0936 6.03206 89.9096 5.45606C88.7576 4.84806 87.4616 4.54406 86.0216 4.54406C84.2936 4.54406 82.7896 4.91206 81.5096 5.64806C80.2616 6.35206 79.2216 7.29606 78.3896 8.48006C77.5576 9.63206 76.9336 10.9601 76.5176 12.4641C76.1016 13.9681 75.8936 15.5041 75.8936 17.0721C75.8936 18.5121 76.0856 19.9201 76.4696 21.2961C76.8856 22.6401 77.4936 23.8401 78.2936 24.8961C79.0936 25.9201 80.0856 26.7521 81.2696 27.3921C82.4536 28.0321 83.8136 28.3521 85.3496 28.3521C87.1736 28.3521 88.7256 27.8881 90.0056 26.9601C91.3176 26.0001 92.2456 24.7521 92.7896 23.2161L93.3176 21.9201L96.8696 24.4161ZM97.9699 18.9441C98.0339 18.1121 98.1139 17.2961 98.2099 16.4961C98.3379 15.6641 98.5459 14.8321 98.8339 14.0001C99.1539 13.0721 99.5859 12.1601 100.13 11.2641C100.674 10.3681 101.346 9.56806 102.146 8.86406C102.978 8.12806 103.922 7.55206 104.978 7.13606C106.066 6.68806 107.282 6.46406 108.626 6.46406C110.162 6.46406 111.554 6.75206 112.802 7.32806C114.05 7.87206 115.138 8.57606 116.066 9.44006C116.066 9.05606 116.066 8.67206 116.066 8.28806C116.098 7.87206 116.114 7.45606 116.114 7.04006V6.17606L119.762 6.03206L120.386 32.2881L119.138 32.1441C118.914 32.1121 118.706 32.0801 118.514 32.0481C118.322 32.0481 118.114 32.0481 117.89 32.0481C117.762 32.1121 117.602 32.1441 117.41 32.1441C117.122 32.1441 116.866 32.0641 116.642 31.9041C116.45 31.7121 116.354 31.4881 116.354 31.2321V31.0881L116.306 30.1761V28.4481C115.282 29.4081 114.098 30.1921 112.754 30.8001C111.41 31.3761 109.938 31.6641 108.338 31.6641C106.642 31.6641 105.138 31.3441 103.826 30.7041C102.546 30.0641 101.474 29.2161 100.61 28.1601C99.7459 27.0721 99.0899 25.8081 98.6419 24.3681C98.1939 22.9281 97.9699 21.3921 97.9699 19.7601V18.9441ZM108.194 28.0161C109.346 28.0161 110.402 27.7921 111.362 27.3441C112.322 26.8641 113.154 26.2561 113.858 25.5201C114.562 24.7521 115.106 23.8881 115.49 22.9281C115.874 21.9681 116.082 20.9921 116.114 20.0001V17.6481C116.114 17.5201 116.082 17.2801 116.018 16.9281C115.954 16.5761 115.89 16.3041 115.826 16.1121C115.634 15.3441 115.33 14.6081 114.914 13.9041C114.498 13.1681 114.002 12.5281 113.426 11.9841C112.85 11.4401 112.194 11.0081 111.458 10.6881C110.722 10.3681 109.906 10.2081 109.01 10.2081C107.73 10.2081 106.626 10.5281 105.698 11.1681C104.77 11.7761 104.002 12.5761 103.394 13.5681C102.818 14.5601 102.386 15.6481 102.098 16.8321C101.842 17.9841 101.714 19.1201 101.714 20.2401C101.714 21.2321 101.842 22.2081 102.098 23.1681C102.354 24.0961 102.738 24.9281 103.25 25.6641C103.794 26.3681 104.466 26.9441 105.266 27.3921C106.098 27.8081 107.074 28.0161 108.194 28.0161ZM137.954 19.1841L133.01 19.3281C133.106 21.2801 133.202 23.2161 133.298 25.1361C133.426 27.0561 133.538 28.9761 133.634 30.8961L133.682 32.0001L132.434 31.8561C132.178 31.8241 131.938 31.8081 131.714 31.8081C131.522 31.7761 131.298 31.7601 131.042 31.7601C131.106 31.7281 131.17 31.6961 131.234 31.6641C131.298 31.6001 131.362 31.5681 131.426 31.5681L129.554 30.9441C129.522 29.0241 129.474 27.1201 129.41 25.2321C129.378 23.3121 129.33 21.3921 129.266 19.4721C128.242 19.5041 127.218 19.5361 126.194 19.5681C125.17 19.5681 124.146 19.5841 123.122 19.6161H122.114L121.922 16.1121H129.266C129.266 15.9521 129.266 15.7761 129.266 15.5841C129.266 15.3921 129.25 15.2001 129.218 15.0081C129.154 14.6561 129.122 14.2881 129.122 13.9041C129.122 13.5201 129.122 13.1361 129.122 12.7521C129.122 11.5361 129.218 10.2561 129.41 8.91206C129.602 7.53606 129.97 6.27206 130.514 5.12006C131.058 3.96806 131.794 3.00806 132.722 2.24006C133.682 1.47206 134.93 1.05606 136.466 0.99206L137.378 0.944059L138.338 4.30406L137.09 4.40006C136.226 4.49606 135.522 4.78406 134.978 5.26406C134.466 5.74406 134.05 6.32006 133.73 6.99206C133.442 7.66406 133.234 8.40006 133.106 9.20006C132.978 9.96806 132.882 10.7041 132.818 11.4081C132.786 11.9841 132.77 12.5281 132.77 13.0401C132.77 13.5521 132.77 14.0161 132.77 14.4321C132.77 14.7201 132.77 15.0081 132.77 15.2961C132.802 15.5841 132.818 15.8561 132.818 16.1121C133.49 16.1121 134.162 16.1121 134.834 16.1121C135.506 16.1121 136.178 16.0961 136.85 16.0641L137.954 16.0161V19.1841ZM158.262 16.9761C158.166 16.4001 158.022 15.8241 157.83 15.2481C157.67 14.6401 157.462 14.1121 157.206 13.6641C156.63 12.5761 155.846 11.6961 154.854 11.0241C153.862 10.3521 152.71 10.0161 151.398 10.0161C150.374 10.0161 149.446 10.2241 148.614 10.6401C147.814 11.0241 147.11 11.5361 146.502 12.1761C145.894 12.8161 145.398 13.5681 145.014 14.4321C144.63 15.2641 144.342 16.1281 144.15 17.0241H149.19H154.614C155.19 17.0241 155.766 17.0241 156.342 17.0241C156.918 17.0241 157.43 17.0081 157.878 16.9761H158.262ZM161.574 24.4161L161.238 25.0401C160.822 25.9361 160.262 26.8001 159.558 27.6321C158.886 28.4641 158.086 29.1841 157.158 29.7921C156.262 30.4001 155.254 30.8961 154.134 31.2801C153.046 31.6321 151.878 31.8081 150.63 31.8081C148.934 31.8081 147.43 31.5041 146.118 30.8961C144.806 30.2561 143.702 29.4081 142.806 28.3521C141.91 27.2641 141.222 26.0001 140.742 24.5601C140.294 23.0881 140.07 21.5361 140.07 19.9041V19.0401C140.134 18.2721 140.198 17.5041 140.262 16.7361C140.358 15.9681 140.534 15.1841 140.79 14.3841C141.11 13.4241 141.542 12.4801 142.086 11.5521C142.662 10.6241 143.366 9.79206 144.198 9.05606C145.03 8.28806 145.99 7.68006 147.078 7.23206C148.198 6.78406 149.462 6.56006 150.87 6.56006C152.886 6.56006 154.694 7.04006 156.294 8.00006C157.926 8.92806 159.222 10.0801 160.182 11.4561C160.502 11.9361 160.79 12.5121 161.046 13.1841C161.334 13.8241 161.574 14.4961 161.766 15.2001C161.99 15.8721 162.15 16.5601 162.246 17.2641C162.374 17.9361 162.438 18.5441 162.438 19.0881V19.9521L143.862 20.4321C143.926 21.4241 144.118 22.4001 144.438 23.3601C144.79 24.3201 145.254 25.1681 145.83 25.9041C146.438 26.6081 147.158 27.1841 147.99 27.6321C148.854 28.0801 149.83 28.3041 150.918 28.3041C152.55 28.3041 153.91 27.8081 154.998 26.8161C156.118 25.8241 156.95 24.6241 157.494 23.2161L158.022 21.9201L161.574 24.4161Z" fill="#F8BE2A"/>
</svg>
