<svg width="43" height="11" viewBox="0 0 43 11" fill="none" xmlns="http://www.w3.org/2000/svg">
<path d="M0.991372 0.0376473L1.06667 4.35451C1.28418 4.15373 1.49333 3.95294 1.69412 3.75216C1.8949 3.54301 2.09987 3.33804 2.30902 3.13726C2.81098 2.64366 3.30458 2.15425 3.7898 1.66902C4.2834 1.17543 4.77699 0.68183 5.27059 0.188236L5.47137 0L5.68471 0.163137C5.70144 0.179869 5.72654 0.204968 5.76 0.238432C5.79346 0.26353 5.83111 0.292811 5.87294 0.326275C5.88967 0.343007 5.9064 0.363922 5.92314 0.38902C5.94823 0.405752 5.96915 0.422484 5.98588 0.439216C6.04444 0.522876 6.07373 0.589804 6.07373 0.64C6.07373 0.648366 6.06954 0.673464 6.06118 0.715294C6.05281 0.748758 6.02771 0.790588 5.98588 0.840784C5.95242 0.865882 5.91059 0.907713 5.86039 0.966275C5.8102 1.01647 5.74745 1.07503 5.67216 1.14196C5.60523 1.20889 5.52993 1.28418 5.44627 1.36784C4.91085 1.90327 4.37542 2.43869 3.84 2.97412C3.31294 3.50118 2.77333 4.02824 2.22118 4.55529C2.2881 4.61386 2.35922 4.6766 2.43451 4.74353C2.51817 4.80209 2.59765 4.86484 2.67294 4.93177C3.44261 5.57595 4.19974 6.22013 4.94431 6.86431C5.69725 7.50013 6.45438 8.14431 7.21569 8.79686C7.24078 8.8136 7.27425 8.84288 7.31608 8.88471C7.36627 8.92654 7.41647 8.96837 7.46667 9.0102C7.49176 9.02693 7.51268 9.04366 7.52941 9.06039C7.55451 9.08549 7.57961 9.10641 7.60471 9.12314C7.62144 9.1315 7.63817 9.14405 7.6549 9.16079L7.79294 9.22353V9.47451L7.11529 10.0894L6.91451 9.83843L6.87686 9.80078L6.80157 9.72549C6.7681 9.70039 6.73464 9.6753 6.70118 9.6502C6.67608 9.63347 6.65516 9.61673 6.63843 9.6L4.32941 7.57961C4.0366 7.33699 3.74379 7.09438 3.45098 6.85177C3.16654 6.60079 2.88209 6.3498 2.59765 6.09882C2.42196 5.94824 2.24627 5.79765 2.07059 5.64706C1.90327 5.49647 1.73176 5.34588 1.55608 5.19529L1.09176 5.64706L1.12941 8.25726L0.815686 8.21961C0.76549 8.21124 0.715294 8.20706 0.665098 8.20706C0.614902 8.20706 0.568889 8.20706 0.527059 8.20706L0.51451 8.19451H0.489412C0.439216 8.21961 0.397386 8.23216 0.363922 8.23216C0.280261 8.23216 0.20915 8.20706 0.150588 8.15686C0.100392 8.10667 0.0752941 8.04811 0.0752941 7.98118V7.68L0.0501961 6.33726C0.033464 5.48392 0.020915 4.63895 0.012549 3.80235C0.00418301 2.96575 0 2.12078 0 1.26745C0 1.1085 0 0.949543 0 0.790588C0.00836601 0.631634 0.016732 0.47268 0.025098 0.313726L0.0376471 0.100392L0.991372 0.0376473ZM8.48118 7.21569C8.79908 7.21569 9.07935 7.15712 9.32196 7.04C9.56458 6.91451 9.76954 6.75137 9.93686 6.55059C10.1042 6.3498 10.2339 6.11556 10.3259 5.84784C10.4179 5.58013 10.4681 5.30405 10.4765 5.01961V4.93177C10.4765 4.65569 10.4388 4.37124 10.3635 4.07843C10.2882 3.78562 10.1753 3.52209 10.0247 3.28784C9.87412 3.04523 9.6817 2.84863 9.44745 2.69804C9.2132 2.54745 8.93712 2.47216 8.61922 2.47216C8.41007 2.47216 8.21346 2.5098 8.02941 2.5851C7.85372 2.66039 7.69059 2.76497 7.54 2.89882C7.39778 3.02431 7.27229 3.1749 7.16353 3.35059C7.05477 3.51791 6.96693 3.69359 6.9 3.87765C6.83307 4.07843 6.78288 4.28758 6.74941 4.5051C6.71595 4.71425 6.69922 4.92758 6.69922 5.1451C6.69922 5.40445 6.73268 5.65961 6.79961 5.91059C6.8749 6.16157 6.98784 6.38327 7.13843 6.57569C7.28902 6.76811 7.47307 6.92288 7.69059 7.04C7.91647 7.15712 8.18 7.21569 8.48118 7.21569ZM9.82392 1.90745C10.1335 2.06641 10.3928 2.26301 10.602 2.49726C10.8111 2.72314 10.9784 2.96993 11.1039 3.23765C11.2378 3.49699 11.334 3.76889 11.3925 4.05333C11.4511 4.33778 11.4804 4.61804 11.4804 4.89412C11.4804 5.32915 11.4051 5.74745 11.2545 6.14902C11.1039 6.54222 10.8948 6.88941 10.6271 7.19059C10.3593 7.49177 10.0373 7.7302 9.66078 7.90588C9.29268 8.08157 8.88274 8.16941 8.43098 8.16941C7.98758 8.16941 7.59438 8.08575 7.25137 7.91843C6.91673 7.75111 6.63647 7.52523 6.41059 7.24078C6.18471 6.95634 6.0132 6.62588 5.89608 6.24941C5.77895 5.87294 5.72039 5.47556 5.72039 5.05726V4.83137C5.73712 4.62222 5.75804 4.42144 5.78314 4.22902C5.80824 4.02824 5.85425 3.82327 5.92118 3.61412C5.99647 3.36314 6.10523 3.11634 6.24745 2.87373C6.39804 2.63111 6.57791 2.41359 6.78706 2.22118C7.00457 2.02876 7.25556 1.87399 7.54 1.75686C7.83281 1.63137 8.15908 1.56863 8.51882 1.56863C8.75307 1.56863 8.97895 1.59791 9.19647 1.65647C9.42235 1.71503 9.6315 1.79869 9.82392 1.90745ZM16.0879 4.86902L14.7954 4.90667C14.8205 5.41699 14.8456 5.92314 14.8707 6.4251C14.9042 6.92706 14.9334 7.42902 14.9585 7.93098L14.9711 8.21961L14.6448 8.18196C14.5779 8.1736 14.5151 8.16941 14.4566 8.16941C14.4064 8.16105 14.3478 8.15686 14.2809 8.15686C14.2976 8.1485 14.3144 8.14013 14.3311 8.13177C14.3478 8.11503 14.3645 8.10667 14.3813 8.10667L13.8919 7.94353C13.8835 7.44157 13.871 6.94379 13.8542 6.4502C13.8459 5.94824 13.8333 5.44627 13.8166 4.94431C13.5489 4.95268 13.2811 4.96105 13.0134 4.96941C12.7457 4.96941 12.478 4.9736 12.2103 4.98196H11.9468L11.8966 4.06588H13.8166C13.8166 4.02405 13.8166 3.97804 13.8166 3.92784C13.8166 3.87765 13.8124 3.82745 13.804 3.77726C13.7873 3.68523 13.7789 3.58902 13.7789 3.48863C13.7789 3.38824 13.7789 3.28784 13.7789 3.18745C13.7789 2.86954 13.804 2.5349 13.8542 2.18353C13.9044 1.82379 14.0006 1.49333 14.1428 1.19216C14.2851 0.890981 14.4775 0.64 14.7201 0.439216C14.9711 0.238431 15.2974 0.129674 15.6989 0.112941L15.9374 0.100392L16.1883 0.978824L15.8621 1.00392C15.6362 1.02902 15.4521 1.10431 15.3099 1.2298C15.1761 1.35529 15.0673 1.50588 14.9836 1.68157C14.9083 1.85726 14.854 2.04967 14.8205 2.25882C14.787 2.45961 14.7619 2.65203 14.7452 2.83608C14.7368 2.98667 14.7327 3.12889 14.7327 3.26275C14.7327 3.3966 14.7327 3.51791 14.7327 3.62667C14.7327 3.70196 14.7327 3.77726 14.7327 3.85255C14.741 3.92784 14.7452 3.99895 14.7452 4.06588C14.9209 4.06588 15.0966 4.06588 15.2723 4.06588C15.4479 4.06588 15.6236 4.0617 15.7993 4.05333L16.0879 4.04078V4.86902ZM17.9213 1.54353L18.0217 8.25726L17.3817 8.19451C17.3482 8.21961 17.3064 8.23216 17.2562 8.23216C17.1725 8.23216 17.1098 8.21543 17.0679 8.18196C17.0345 8.1485 17.0094 8.10667 16.9927 8.05647C16.9843 8.00627 16.9801 7.9519 16.9801 7.89333C16.9801 7.82641 16.9801 7.76784 16.9801 7.71765L16.955 6.55059C16.9383 5.70562 16.9257 4.86484 16.9174 4.02824C16.909 3.18327 16.9048 2.3383 16.9048 1.49333H16.9299C16.9299 1.39294 16.9257 1.28418 16.9174 1.16706C16.909 1.04993 16.9132 0.94536 16.9299 0.853333C16.955 0.752941 16.9968 0.669281 17.0554 0.602353C17.1223 0.535425 17.2311 0.501961 17.3817 0.501961H17.7079C17.7665 0.568889 17.8251 0.635817 17.8836 0.702745C17.9422 0.769673 17.9715 0.84915 17.9715 0.941177C17.9715 1.04157 17.9631 1.14196 17.9464 1.24235C17.938 1.34275 17.9338 1.44314 17.9338 1.54353H17.9213ZM25.1999 6.23686L25.112 6.4C24.9866 6.65935 24.8192 6.90196 24.6101 7.12784C24.4093 7.34536 24.1751 7.53778 23.9073 7.7051C23.648 7.86405 23.3636 7.98954 23.054 8.08157C22.7445 8.16523 22.4182 8.20706 22.0752 8.20706C21.523 8.20706 21.0378 8.10248 20.6195 7.89333C20.2012 7.68418 19.8498 7.40392 19.5654 7.05255C19.2893 6.70118 19.0802 6.29124 18.9379 5.82275C18.7957 5.34588 18.7246 4.84392 18.7246 4.31686C18.7246 3.99059 18.7497 3.64758 18.7999 3.28784C18.8501 2.92811 18.9421 2.57673 19.076 2.23373C19.2182 1.89072 19.4106 1.56863 19.6532 1.26745C19.8958 0.966275 20.2096 0.711111 20.5944 0.501961C21.0796 0.234248 21.6151 0.100392 22.2007 0.100392C22.7361 0.100392 23.2381 0.213333 23.7066 0.439216C24.1751 0.656732 24.5515 0.966275 24.836 1.36784L24.9238 1.48078L24.2713 2.32157L24.0579 1.92C23.9157 1.64392 23.6898 1.43059 23.3803 1.28C23.0791 1.12105 22.7403 1.04157 22.3638 1.04157C21.912 1.04157 21.5188 1.13778 21.1842 1.3302C20.8579 1.51425 20.586 1.76105 20.3685 2.07059C20.151 2.37176 19.9879 2.71895 19.8791 3.11216C19.7704 3.50536 19.716 3.90693 19.716 4.31686C19.716 4.69333 19.7662 5.06144 19.8666 5.42118C19.9753 5.77255 20.1343 6.08627 20.3434 6.36235C20.5526 6.63007 20.8119 6.84758 21.1215 7.0149C21.431 7.18222 21.7866 7.26588 22.1881 7.26588C22.665 7.26588 23.0707 7.14458 23.4054 6.90196C23.7484 6.65098 23.991 6.32471 24.1332 5.92314L24.2713 5.58431L25.1999 6.23686ZM25.4876 4.80627C25.5043 4.58876 25.5252 4.37542 25.5503 4.16627C25.5838 3.94876 25.6381 3.73124 25.7134 3.51373C25.7971 3.27111 25.91 3.03268 26.0523 2.79843C26.1945 2.56418 26.3702 2.35503 26.5793 2.17098C26.7969 1.97856 27.0437 1.82797 27.3197 1.71922C27.6042 1.60209 27.9221 1.54353 28.2735 1.54353C28.675 1.54353 29.039 1.61882 29.3652 1.76941C29.6915 1.91163 29.9759 2.09569 30.2186 2.32157C30.2186 2.22118 30.2186 2.12078 30.2186 2.02039C30.2269 1.91163 30.2311 1.80288 30.2311 1.69412V1.46824L31.1848 1.43059L31.348 8.2949L31.0217 8.25726C30.9631 8.24889 30.9088 8.24052 30.8586 8.23216C30.8084 8.23216 30.754 8.23216 30.6954 8.23216C30.662 8.24889 30.6201 8.25726 30.5699 8.25726C30.4946 8.25726 30.4277 8.23634 30.3691 8.19451C30.319 8.14431 30.2939 8.08575 30.2939 8.01882V7.98118L30.2813 7.74275V7.29098C30.0136 7.54196 29.704 7.74693 29.3527 7.90588C29.0013 8.05647 28.6165 8.13177 28.1982 8.13177C27.7548 8.13177 27.3616 8.0481 27.0186 7.88078C26.6839 7.71346 26.4037 7.49177 26.1778 7.21569C25.9519 6.93124 25.7804 6.60078 25.6632 6.22431C25.5461 5.84784 25.4876 5.44627 25.4876 5.01961V4.80627ZM28.1605 7.17804C28.4617 7.17804 28.7378 7.11948 28.9888 7.00235C29.2397 6.87686 29.4573 6.71791 29.6413 6.52549C29.8254 6.32471 29.9676 6.09882 30.068 5.84784C30.1684 5.59686 30.2227 5.3417 30.2311 5.08235V4.46745C30.2311 4.43399 30.2227 4.37124 30.206 4.27922C30.1893 4.18719 30.1725 4.11608 30.1558 4.06588C30.1056 3.8651 30.0261 3.67268 29.9174 3.48863C29.8086 3.29621 29.679 3.12889 29.5284 2.98667C29.3778 2.84445 29.2063 2.7315 29.0139 2.64784C28.8214 2.56418 28.6081 2.52235 28.3739 2.52235C28.0392 2.52235 27.7506 2.60601 27.508 2.77333C27.2654 2.93229 27.0646 3.14144 26.9056 3.40078C26.755 3.66013 26.6421 3.94458 26.5668 4.25412C26.4999 4.55529 26.4664 4.85229 26.4664 5.1451C26.4664 5.40445 26.4999 5.65961 26.5668 5.91059C26.6337 6.1532 26.7341 6.37072 26.868 6.56314C27.0102 6.74719 27.1859 6.89778 27.395 7.0149C27.6125 7.12366 27.8677 7.17804 28.1605 7.17804ZM35.9409 4.86902L34.6484 4.90667C34.6735 5.41699 34.6986 5.92314 34.7237 6.4251C34.7571 6.92706 34.7864 7.42902 34.8115 7.93098L34.8241 8.21961L34.4978 8.18196C34.4309 8.1736 34.3681 8.16941 34.3095 8.16941C34.2593 8.16105 34.2008 8.15686 34.1339 8.15686C34.1506 8.1485 34.1673 8.14013 34.184 8.13177C34.2008 8.11503 34.2175 8.10667 34.2342 8.10667L33.7448 7.94353C33.7365 7.44157 33.7239 6.94379 33.7072 6.4502C33.6988 5.94824 33.6863 5.44627 33.6695 4.94431C33.4018 4.95268 33.1341 4.96105 32.8664 4.96941C32.5987 4.96941 32.331 4.9736 32.0633 4.98196H31.7997L31.7495 4.06588H33.6695C33.6695 4.02405 33.6695 3.97804 33.6695 3.92784C33.6695 3.87765 33.6654 3.82745 33.657 3.77726C33.6403 3.68523 33.6319 3.58902 33.6319 3.48863C33.6319 3.38824 33.6319 3.28784 33.6319 3.18745C33.6319 2.86954 33.657 2.5349 33.7072 2.18353C33.7574 1.82379 33.8536 1.49333 33.9958 1.19216C34.138 0.890981 34.3305 0.64 34.5731 0.439216C34.8241 0.238431 35.1503 0.129674 35.5519 0.112941L35.7903 0.100392L36.0413 0.978824L35.715 1.00392C35.4891 1.02902 35.3051 1.10431 35.1629 1.2298C35.029 1.35529 34.9203 1.50588 34.8366 1.68157C34.7613 1.85726 34.7069 2.04967 34.6735 2.25882C34.64 2.45961 34.6149 2.65203 34.5982 2.83608C34.5898 2.98667 34.5856 3.12889 34.5856 3.26275C34.5856 3.3966 34.5856 3.51791 34.5856 3.62667C34.5856 3.70196 34.5856 3.77726 34.5856 3.85255C34.594 3.92784 34.5982 3.99895 34.5982 4.06588C34.7739 4.06588 34.9495 4.06588 35.1252 4.06588C35.3009 4.06588 35.4766 4.0617 35.6523 4.05333L35.9409 4.04078V4.86902ZM41.2502 4.29177C41.2251 4.14118 41.1875 3.99059 41.1373 3.84C41.0954 3.68105 41.041 3.54301 40.9741 3.42588C40.8235 3.14144 40.6186 2.91137 40.3592 2.73569C40.0999 2.56 39.7987 2.47216 39.4557 2.47216C39.188 2.47216 38.9454 2.52654 38.7278 2.63529C38.5187 2.73569 38.3346 2.86954 38.1757 3.03686C38.0167 3.20418 37.8871 3.40078 37.7867 3.62667C37.6863 3.84418 37.611 4.07007 37.5608 4.30431H38.8784H40.2965C40.4471 4.30431 40.5976 4.30431 40.7482 4.30431C40.8988 4.30431 41.0327 4.30013 41.1498 4.29177H41.2502ZM42.1161 6.23686L42.0282 6.4C41.9195 6.63425 41.7731 6.86013 41.589 7.07765C41.4133 7.29516 41.2042 7.4834 40.9616 7.64235C40.7273 7.80131 40.4638 7.93098 40.171 8.03137C39.8865 8.1234 39.5812 8.16941 39.2549 8.16941C38.8115 8.16941 38.4183 8.08994 38.0753 7.93098C37.7323 7.76366 37.4437 7.54196 37.2094 7.26588C36.9752 6.98144 36.7953 6.65098 36.6698 6.27451C36.5527 5.88967 36.4941 5.48392 36.4941 5.05726V4.83137C36.5109 4.63059 36.5276 4.4298 36.5443 4.22902C36.5694 4.02824 36.6154 3.82327 36.6824 3.61412C36.766 3.36314 36.879 3.11634 37.0212 2.87373C37.1718 2.63111 37.3558 2.41359 37.5733 2.22118C37.7908 2.02039 38.0418 1.86144 38.3263 1.74431C38.6191 1.62719 38.9495 1.56863 39.3176 1.56863C39.8447 1.56863 40.3174 1.69412 40.7357 1.9451C41.1624 2.18771 41.5012 2.48889 41.7522 2.84863C41.8358 2.97412 41.9111 3.12471 41.978 3.30039C42.0533 3.46771 42.1161 3.6434 42.1663 3.82745C42.2248 4.00314 42.2667 4.18301 42.2918 4.36706C42.3252 4.54275 42.342 4.7017 42.342 4.84392V5.0698L37.4855 5.19529C37.5022 5.45464 37.5524 5.7098 37.6361 5.96078C37.7281 6.21177 37.8494 6.43346 38 6.62588C38.159 6.80993 38.3472 6.96052 38.5647 7.07765C38.7906 7.19477 39.0458 7.25333 39.3302 7.25333C39.7569 7.25333 40.1124 7.12366 40.3969 6.86431C40.6897 6.60497 40.9072 6.29124 41.0494 5.92314L41.1875 5.58431L42.1161 6.23686Z" fill="#222222"/>
</svg>
